<svg xmlns="http://www.w3.org/2000/svg" width="510" height="700" viewBox="0 0 510 700"><rect width="100%" height="100%" fill="#DDDDDD"/><path fill="#999999" d="m115.345 333.035-1.73 10.24q1.63-.34 3.13-.5 1.49-.15 2.89-.15 3.87 0 6.83 1.16 2.96 1.15 4.97 3.19 2 2.04 3.02 4.78t1.02 5.9q0 3.91-1.38 7.14-1.37 3.23-3.82 5.52-2.45 2.3-5.8 3.56-3.35 1.25-7.29 1.25-2.31 0-4.39-.47-2.07-.48-3.89-1.28-1.82-.8-3.37-1.83-1.54-1.04-2.77-2.2l2.59-3.57q.81-1.15 2.14-1.15.85 0 1.73.54.89.55 2.03 1.19 1.14.65 2.68 1.19 1.55.55 3.73.55 2.31 0 4.08-.75 1.76-.75 2.94-2.09 1.17-1.35 1.76-3.2.6-1.85.6-4.03 0-4.01-2.33-6.27t-6.88-2.26q-3.51 0-7.18 1.29l-5.23-1.5 4.08-23.86h24.27v3.57q0 1.8-1.12 2.92-1.12 1.12-3.81 1.12h-13.5Zm50.26 35.26h8.84v6.29h-27.2v-6.29h9.96v-28.66q0-1.7.1-3.5l-7.07 5.91q-.61.48-1.21.6-.59.12-1.12.01-.53-.1-.94-.35-.4-.26-.61-.56l-2.65-3.64 14.99-12.75h6.91v42.94Zm50.83-18.29q0 6.42-1.38 11.17-1.38 4.74-3.81 7.83-2.43 3.1-5.75 4.61-3.31 1.51-7.15 1.51-3.84 0-7.13-1.51-3.28-1.51-5.69-4.61-2.41-3.09-3.77-7.83-1.36-4.75-1.36-11.17 0-6.46 1.36-11.19 1.36-4.72 3.77-7.82 2.41-3.09 5.69-4.61 3.29-1.51 7.13-1.51t7.15 1.51q3.32 1.52 5.75 4.61 2.43 3.1 3.81 7.82 1.38 4.73 1.38 11.19Zm-8.67 0q0-5.34-.79-8.84-.78-3.5-2.09-5.58-1.31-2.07-3.01-2.91-1.7-.83-3.53-.83-1.8 0-3.49.83-1.68.84-2.97 2.91-1.29 2.08-2.06 5.58-.76 3.5-.76 8.84t.76 8.84q.77 3.5 2.06 5.57 1.29 2.08 2.97 2.91 1.69.83 3.49.83 1.83 0 3.53-.83 1.7-.83 3.01-2.91 1.31-2.07 2.09-5.57.79-3.5.79-8.84Zm62.66 13.33-4.46 4.38-11.52-11.52-11.63 11.59-4.45-4.39 11.62-11.66-11.08-11.08 4.42-4.42 11.08 11.08 11.02-11.01 4.49 4.42-11.05 11.05 11.56 11.56Zm23.36-37.91h33.96v3.63q0 1.64-.34 2.64-.34 1-.68 1.68l-18.63 38.35q-.58 1.19-1.63 2.03-1.06.83-2.82.83h-6.09l19.01-37.57q.64-1.16 1.27-2.13.63-.96 1.41-1.85h-23.53q-.78 0-1.36-.58-.57-.57-.57-1.36v-5.67Zm74.01 24.58q0 6.42-1.37 11.17-1.38 4.74-3.81 7.83-2.43 3.1-5.75 4.61-3.31 1.51-7.15 1.51-3.85 0-7.13-1.51t-5.69-4.61q-2.42-3.09-3.78-7.83-1.36-4.75-1.36-11.17 0-6.46 1.36-11.19 1.36-4.72 3.78-7.82 2.41-3.09 5.69-4.61 3.28-1.51 7.13-1.51 3.84 0 7.15 1.51 3.32 1.52 5.75 4.61 2.43 3.1 3.81 7.82 1.37 4.73 1.37 11.19Zm-8.67 0q0-5.34-.78-8.84t-2.09-5.58q-1.31-2.07-3.01-2.91-1.7-.83-3.53-.83-1.81 0-3.49.83-1.68.84-2.97 2.91-1.3 2.08-2.06 5.58-.77 3.5-.77 8.84t.77 8.84q.76 3.5 2.06 5.57 1.29 2.08 2.97 2.91 1.68.83 3.49.83 1.83 0 3.53-.83 1.7-.83 3.01-2.91 1.31-2.07 2.09-5.57.78-3.5.78-8.84Zm48.11 0q0 6.42-1.37 11.17-1.38 4.74-3.81 7.83-2.43 3.1-5.75 4.61-3.31 1.51-7.15 1.51-3.85 0-7.13-1.51t-5.69-4.61q-2.42-3.09-3.78-7.83-1.36-4.75-1.36-11.17 0-6.46 1.36-11.19 1.36-4.72 3.78-7.82 2.41-3.09 5.69-4.61 3.28-1.51 7.13-1.51 3.84 0 7.15 1.51 3.32 1.52 5.75 4.61 2.43 3.1 3.81 7.82 1.37 4.73 1.37 11.19Zm-8.67 0q0-5.34-.78-8.84t-2.09-5.58q-1.31-2.07-3.01-2.91-1.7-.83-3.53-.83-1.81 0-3.49.83-1.68.84-2.97 2.91-1.3 2.08-2.06 5.58-.77 3.5-.77 8.84t.77 8.84q.76 3.5 2.06 5.57 1.29 2.08 2.97 2.91 1.68.83 3.49.83 1.83 0 3.53-.83 1.7-.83 3.01-2.91 1.31-2.07 2.09-5.57.78-3.5.78-8.84Z"/></svg>